<svg id="Alerts_icon" data-name="Alerts icon" xmlns="http://www.w3.org/2000/svg" width="18.436" height="18.465" viewBox="0 0 18.436 18.465">
  <path id="Path_12" data-name="Path 12" d="M232.658,900.229l.357.016.357.044.352.065.352.1.341.12.33.147.325.18.308.213.3.229.276.262.13-.1.13-.087.152-.06.152-.033.146-.011.157.011.152.033.146.065.13.082.13.1.1.125.081.131.054.147.038.147.011.158-.011.153-.038.147-.054.147-.081.136-.1.12.26.284.227.294.211.316.173.322.152.333.124.344.092.349.07.354.038.354.016.36-.016.36-.038.354-.07.36-.092.344-.124.344-.152.333-.173.327-.211.305-.227.3-.26.278-4.453,4.461-.092.109-.076.136-.054.136-.038.153-.022.153-.011.169v.338l.011.164.005.164.005.164.011.153.005.164.005.169.005.169-.005.164-.011.169-.022.164-.038.147-.049.147-.076.125-.092.115-.969.971v-.005l-.135.1-.146.076-.168.055-.179.027-.2.011-.243-.011-.26-.044-.276-.06-.287-.087-.314-.115-.319-.136-.33-.158-.352-.18-.352-.2-.363-.229.244-.093.233-.115.216-.131.211-.158.2-.174.276.158.265.136.254.12.244.1.227.087.206.06.189.049.173.027.157.011h.022v-.12l-.022-.147-.032-.164-.06-.2-.07-.218-.1-.234-.114-.267-.141-.278-.162-.3-.184-.316-.206-.338-.238-.354-.26-.365-.287-.387.049.24.032.251.005.251-.027.245-.043.245-.07.234-.1.234-.13.224-.146.207-.179.2-.157.147-.173.125-.179.115h0l-.211.1-.211.082-.222.065h-.011l-.168.033-.168.016-.179.005-.26-.011-.254-.038-.254-.076-.244-.1-.233-.125-.222-.158-.206-.185-.173-.191-.146-.2-.119-.213-.1-.218-.076-.234-.049-.229-.027-.24h0v-.027l-.005-.158.005-.153v-.005l.022-.164.027-.164.011-.016.005-.016.054-.213.081-.2.1-.2v-.011l.119-.174.119-.164.146-.164.179-.158.189-.142.2-.12.216-.1.211-.076.227-.049.227-.038.222-.011.249.016.249.038.238.065.233.087-.189-.2-.2-.207-.363-.354-.368-.338-.363-.327-.357-.3-.352-.289-.346-.262-.335-.251-.335-.224-.314-.213-.314-.185-.3-.174-.281-.153-.271-.131-.26-.109-.238-.093-.222-.076-.206-.055-.184-.027-.168-.011h-.016v.115l.016.142.038.164.049.191.076.207.087.234.119.251.13.273.152.294.179.311.2.327.227.344.254.354.276.376.3.387.336.4-.168.273-.135.289-.114.3-.07.305-.314-.349-.292-.354-.287-.349-.265-.344-.249-.349-.233-.338-.222-.333-.2-.327-.184-.322-.173-.316-.152-.305-.13-.294-.114-.284-.092-.273-.076-.256-.06-.251-.027-.234-.016-.224.011-.2.027-.185.054-.174.076-.147.1-.131h-.005l.969-.976.13-.1.141-.087.162-.065.173-.055.184-.027.184-.016h.189l.184.016.173.027.168.049.222.055.206.049.189.022.168.005.162-.011.141-.027.135-.044.119-.06.124-.076.108-.087.108-.1,4.448-4.455.281-.262.292-.229.314-.213.325-.169.335-.158.341-.12.346-.093.352-.071.357-.038.357-.022Z" transform="translate(-220.309 -900.229)" fill="#f5f5f5" fill-rule="evenodd"/>
</svg>
