<svg xmlns="http://www.w3.org/2000/svg" width="18.333" height="18.333" viewBox="0 0 18.333 18.333"><defs><style>.a{opacity:0.8;}.b{fill:#fff;}</style></defs><g class="a"><circle class="b" cx="0.5" cy="0.5" r="0.5" transform="translate(13.167 7.167)"/><path class="b" d="M15.469,1.432h-.931V.716a.716.716,0,1,0-1.432,0v.716H9.847V.716a.716.716,0,0,0-1.432,0v.716H5.192V.716a.716.716,0,1,0-1.432,0v.716h-.9A2.868,2.868,0,0,0,0,4.3V15.469a2.868,2.868,0,0,0,2.865,2.865H8.343a.716.716,0,1,0,0-1.432H2.865a1.434,1.434,0,0,1-1.432-1.432V4.3A1.434,1.434,0,0,1,2.865,2.865h.9v.716a.716.716,0,1,0,1.432,0V2.865H8.415v.716a.716.716,0,0,0,1.432,0V2.865h3.258v.716a.716.716,0,1,0,1.432,0V2.865h.931A1.434,1.434,0,0,1,16.9,4.3V8.379a.716.716,0,1,0,1.432,0V4.3A2.868,2.868,0,0,0,15.469,1.432Z"/><path class="b" d="M274.333,270a4.333,4.333,0,1,0,4.333,4.333A4.338,4.338,0,0,0,274.333,270Zm0,7.233a2.9,2.9,0,1,1,2.9-2.9A2.9,2.9,0,0,1,274.333,277.233Z" transform="translate(-260.332 -260.332)"/><path class="b" d="M372.755,331.468h-.322v-.752a.716.716,0,1,0-1.432,0v1.468a.716.716,0,0,0,.716.716h1.038a.716.716,0,1,0,0-1.432Z" transform="translate(-357.715 -318.184)"/><circle class="b" cx="0.5" cy="0.5" r="0.5" transform="translate(10.167 7.167)"/><circle class="b" cx="0.5" cy="0.5" r="0.5" transform="translate(7.167 10.167)"/><circle class="b" cx="0.5" cy="0.5" r="0.5" transform="translate(4.167 7.167)"/><circle class="b" cx="0.5" cy="0.5" r="0.5" transform="translate(4.167 10.167)"/><circle class="b" cx="0.5" cy="0.5" r="0.5" transform="translate(4.167 13.167)"/><circle class="b" cx="0.5" cy="0.5" r="0.5" transform="translate(7.167 13.167)"/><circle class="b" cx="0.5" cy="0.5" r="0.5" transform="translate(7.167 7.167)"/></g></svg>