<svg id="icon" xmlns="http://www.w3.org/2000/svg" width="19.58" height="16.906" viewBox="0 0 19.58 16.906">
  <path id="Path_6" data-name="Path 6" d="M222.908,127.632V137.5H236.8v-9.865Zm-.374-1.83h14.637l.213.018.207.045.19.075.178.1.167.12.144.143.126.165.1.178.075.188.04.212.018.212v10.974l-.018.194-.046.183-.08.177-.11.149-.132.132-.155.1-.173.085-.184.052-.2.017H222.172l-.2-.017-.184-.052-.173-.085-.15-.1-.138-.132-.109-.149-.075-.177-.052-.183-.023-.194V127.261l.023-.212.046-.212.069-.188.1-.178.121-.165.138-.143.173-.12.178-.1.2-.075.2-.045.213-.018Z" transform="translate(-219.722 -125.802)" fill="#fbfbfb" fill-rule="evenodd"/>
  <path id="Path_7" data-name="Path 7" d="M227.24,141.027l-.1.01-.08.041-.081.046-.051.071-.04.072-.012.086.012.092.04.076.051.066.081.051.08.031.1.015h4.55l.091-.015.092-.031.069-.051.063-.066.034-.076.012-.092-.012-.086-.034-.072-.063-.071-.069-.046-.092-.041-.091-.01ZM220.083,140h18.858l.092.01.091.041.069.046.063.066.034.077.012.091v1.2l-.017.173-.052.163-.08.158-.115.142-.137.133-.161.112-.183.1-.2.081-.217.056-.23.041-.24.015H221.361l-.241-.015-.235-.041-.218-.056-.2-.081-.183-.1-.161-.112-.137-.133-.109-.142-.086-.158-.052-.163-.017-.173v-1.2l.011-.091.035-.077.063-.066.069-.046.091-.041.092-.01Z" transform="translate(-219.722 -125.802)" fill="#fbfbfb" fill-rule="evenodd"/>
</svg>
