<svg id="Device_Management" data-name="Device Management" xmlns="http://www.w3.org/2000/svg" width="19.533" height="16.128" viewBox="0 0 19.533 16.128">
  <path id="Path_8" data-name="Path 8" d="M229.532,785.867h0l.649.011.625.016.62.032.6.042.6.063.568.074.556.074.539.1.515.1.5.111.475.127.446.127.429.143.394.148.371.153.347.169.307.174.278.174.249.185.208.19.18.19.133.2.1.206.064.211.017.211-.017.211-.064.211-.1.2-.133.2-.18.2-.208.19-.249.18-.278.18-.307.174-.347.164-.371.153-.394.153-.429.137-.446.132-.475.121-.5.111-.515.1-.539.1-.556.084-.568.063-.6.063-.6.042-.62.037-.625.021-.649.005-.643-.005-.625-.021-.62-.037-.608-.042-.591-.063-.573-.063-.556-.084-.539-.1-.515-.1-.5-.111-.469-.121-.452-.132-.423-.137-.4-.153-.365-.153-.347-.164-.307-.174-.284-.18-.243-.18-.208-.19-.18-.2-.133-.2-.1-.2-.064-.211-.017-.211.017-.211.064-.211.1-.206.133-.2.18-.19.208-.19.243-.185.284-.174.307-.174.347-.169.365-.153.4-.148.423-.143.452-.127.469-.127.5-.111.515-.1.539-.1.556-.074.573-.074.591-.063.608-.042.62-.032.625-.016.643-.011Z" transform="translate(-219.768 -785.867)" fill="#f5f5f5" fill-rule="evenodd"/>
  <path id="Path_9" data-name="Path 9" d="M219.838,792.319l.458.2.5.19.527.176.556.166.585.161.614.138.631.128.66.124.683.1.707.086.718.076.747.062.753.038.776.029.782.01.788-.01.776-.029.753-.038.747-.062.724-.076.7-.086.678-.1.666-.124.637-.128.608-.138.585-.161.556-.166.533-.176.492-.19.463-.2.046.162.017.166-.017.19-.064.19-.1.185-.133.176-.18.176-.208.171-.249.166-.278.157-.307.157-.347.143-.371.147-.394.128-.429.128-.446.114-.475.114-.5.1-.515.09-.539.081-.556.071-.568.067-.6.047-.6.048-.62.029-.625.014-.649,0-.643,0-.625-.014-.62-.029-.608-.048-.591-.047-.573-.067-.556-.071-.539-.081-.515-.09-.5-.1-.469-.114-.452-.114-.423-.128-.4-.128-.365-.147-.347-.143-.307-.157-.284-.157-.243-.166-.208-.171-.18-.176-.133-.176-.1-.185-.064-.19-.017-.19.017-.166.052-.162Z" transform="translate(-219.768 -785.867)" fill="#f5f5f5" fill-rule="evenodd"/>
  <path id="Path_10" data-name="Path 10" d="M219.838,794.9l.458.239.5.228.527.217.556.194.585.188.614.171.631.16.66.143.683.12.707.108.718.086.747.074.753.046.776.034.782.011.788-.011.776-.034.753-.046.747-.074.724-.086.7-.108.678-.12.666-.143.637-.16.608-.171.585-.188.556-.194.533-.217.492-.228.463-.239.046.2.017.194-.017.228-.064.228-.1.217-.133.222-.18.205-.208.205-.249.2-.278.188-.307.188-.347.171-.371.177-.394.154-.429.16-.446.137-.475.131-.5.125-.515.108-.539.1-.556.08-.568.08-.6.057-.6.057-.62.034-.625.017-.649.006-.643-.006-.625-.017-.62-.034-.608-.057-.591-.057-.573-.08-.556-.08-.539-.1-.515-.108-.5-.125-.469-.131-.452-.137-.423-.16-.4-.154-.365-.177-.347-.171-.307-.188-.284-.188-.243-.2-.208-.205-.18-.205-.133-.222-.1-.217-.064-.228-.017-.228.017-.194.052-.2Z" transform="translate(-219.768 -785.867)" fill="#f5f5f5" fill-rule="evenodd"/>
  <path id="Path_11" data-name="Path 11" d="M219.838,798.125l.458.239.5.228.527.211.556.2.585.182.614.177.631.154.66.142.683.12.707.108.718.091.747.068.753.051.776.028.782.011.788-.011.776-.028.753-.051.747-.068.724-.091.7-.108.678-.12.666-.142.637-.154.608-.177.585-.182.556-.2.533-.211.492-.228.463-.239.046.194.017.194-.017.228-.064.228-.1.222-.133.216-.18.211-.208.2-.249.2-.278.194-.307.182-.347.182-.371.165-.394.159-.429.154-.446.142-.475.131-.5.12-.515.114-.539.1-.556.091-.568.074-.6.063-.6.046-.62.034-.625.028-.649.006-.643-.006-.625-.028-.62-.034-.608-.046-.591-.063-.573-.074-.556-.091-.539-.1-.515-.114-.5-.12-.469-.131-.452-.142-.423-.154-.4-.159-.365-.165-.347-.182-.307-.182-.284-.194-.243-.2-.208-.2-.18-.211-.133-.216-.1-.222-.064-.228-.017-.228.017-.194.052-.194Z" transform="translate(-219.768 -785.867)" fill="#f5f5f5" fill-rule="evenodd"/>
</svg>
