<svg xmlns="http://www.w3.org/2000/svg" width="21.113" height="21" viewBox="0 0 21.113 21"><defs><style>.a{fill:#007d7f;}</style></defs><path class="a" d="M20.508,30.888a.553.553,0,0,0-.553.553v4.914a1.662,1.662,0,0,1-1.66,1.66H2.767a1.662,1.662,0,0,1-1.66-1.66V21.935a1.662,1.662,0,0,1,1.66-1.66H7.68a.553.553,0,0,0,0-1.107H2.767A2.77,2.77,0,0,0,0,21.935v14.42a2.77,2.77,0,0,0,2.767,2.767H18.294a2.77,2.77,0,0,0,2.767-2.767V31.442A.554.554,0,0,0,20.508,30.888Zm0,0" transform="translate(0 -18.122)"/><path class="a" d="M156.367,40.408l8.08-8.08,2.606,2.606-8.08,8.08Zm0,0" transform="translate(-147.714 -30.554)"/><path class="a" d="M132.543,200.1l2.88-.8-2.082-2.082Zm0,0" transform="translate(-125.208 -186.32)"/><path class="a" d="M319.07.673a1.385,1.385,0,0,0-1.956,0l-.587.587,2.606,2.606.587-.587a1.385,1.385,0,0,0,0-1.956Zm0,0" transform="translate(-299.011 -0.269)"/></svg>