<svg xmlns="http://www.w3.org/2000/svg" width="19.442" height="20.632" viewBox="0 0 19.442 20.632">
  <path id="Access_Icon" data-name="Access Icon" d="M238.38,1024.582h-8.471v-9.046l-.028-.146-.082-.147-.11-.058-.165-.03h-.441l-.467.03-.44.058-.44.117-.44.088-.44.117-.44.176-.44.146-.413.176-.385.234-.385.234-.358.264-.385.293-.357.263-.358.351-.33.322-.33.381-.275.351-.3.41-.248.351-.247.41-.221.41-.192.439-.193.439-.165.44-.137.439-.11.5-.11.469-.055.468-.083.5-.027.468-.028.5.028.468.027.527.083.469.055.468.11.468.11.469.137.439.165.468.193.439.192.41.221.41.247.41.248.41.3.38.275.381.33.322.33.351.358.322.357.322.385.235.358.292.385.235.385.2.413.175.44.2.44.117.44.147.44.117.44.058.44.059.467.029.441.029.467-.029.44-.029.495-.059.44-.058.44-.117.44-.147.413-.117.412-.2.413-.175.413-.2.385-.235.385-.292.357-.235.385-.322.3-.322.357-.351.3-.322.33-.381.275-.38.248-.41.247-.41.22-.41.22-.41.165-.439.165-.468.138-.439.11-.469.11-.468.082-.468.055-.469.028-.527v-.468l-.028-.147-.055-.117-.137-.117-.165-.029Zm-8.856,9.427h-.413l-.44-.059-.413-.029-.44-.088-.385-.088-.412-.146-.385-.147-.385-.146-.385-.176-.385-.2-.358-.234-.33-.205-.3-.263-.33-.293-.33-.263-.3-.293-.248-.322-.275-.322-.275-.352-.22-.351-.22-.351-.192-.381-.22-.41-.138-.409-.137-.41-.166-.41-.11-.439-.082-.41-.11-.468-.028-.44-.055-.468v-.908l.028-.439.055-.439.11-.439.082-.41.083-.41.138-.409.137-.41.165-.41.193-.381.192-.38.22-.322.193-.352.247-.351.248-.322.275-.293.3-.292.248-.293.33-.264.33-.263.33-.264.33-.205.358-.205.33-.175.385-.176.357-.146.413-.147.385-.087.385-.118.412-.087.413-.03.412-.029v9.017l.028.088.027.117.056.058.082.059h0l6.848,5.269-.3.41-.33.352-.33.351-.385.322-.358.293-.385.292-.412.264-.413.205-.44.234-.44.176-.44.146-.468.146-.467.118-.468.058-.522.029-.495.03Zm7.1-4.07-5.913-4.537h7.289l-.028.614-.082.615-.138.586-.165.585-.165.557-.247.556-.276.527-.275.5Z" transform="translate(-219.802 -1014.676)" fill="#f5f5f5" stroke="#f5f5f5" stroke-miterlimit="10" stroke-width="0.958" fill-rule="evenodd"/>
</svg>
