<svg xmlns="http://www.w3.org/2000/svg" width="30.1" height="26.619" viewBox="0 0 30.1 26.619">
  <g id="Support" transform="translate(0.25 0.25)">
    <g id="Group_2" data-name="Group 2">
      <path id="Path_30" data-name="Path 30" d="M213.248,191.141H199.489a.434.434,0,0,0,0,.867h13.759a.434.434,0,1,0,0-.867Z" transform="translate(-187.547 -181.831)" fill="#fff" stroke="#fff" stroke-width="0.5"/>
      <path id="Path_31" data-name="Path 31" d="M213.248,248.474H199.489a.434.434,0,0,0,0,.867h13.759a.434.434,0,1,0,0-.867Z" transform="translate(-187.547 -235.85)" fill="#fff" stroke="#fff" stroke-width="0.5"/>
      <path id="Path_32" data-name="Path 32" d="M213.248,305.807H199.489a.434.434,0,0,0,0,.867h13.759a.434.434,0,1,0,0-.867Z" transform="translate(-187.547 -289.868)" fill="#fff" stroke="#fff" stroke-width="0.5"/>
      <path id="Path_33" data-name="Path 33" d="M158.146,125.549H141.632a2.525,2.525,0,0,0-2.522,2.522v10.384a2.525,2.525,0,0,0,2.522,2.522h11.575a.4.4,0,0,1,.316.153l3.738,4.732a.745.745,0,0,0,.587.288.767.767,0,0,0,.252-.043.746.746,0,0,0,.507-.713v-4.46a2.534,2.534,0,0,0,2.061-2.479V128.071A2.525,2.525,0,0,0,158.146,125.549Zm1.655,12.906a1.66,1.66,0,0,1-1.633,1.654.434.434,0,0,0-.428.434v4.527l-3.537-4.477a1.262,1.262,0,0,0-1-.483H141.632a1.657,1.657,0,0,1-1.655-1.655V128.071a1.657,1.657,0,0,1,1.655-1.655h16.514a1.657,1.657,0,0,1,1.655,1.655Z" transform="translate(-131.068 -120.031)" fill="#fff" stroke="#fff" stroke-width="0.5"/>
      <path id="Path_34" data-name="Path 34" d="M6.388,42.8a1.156,1.156,0,0,0-.748.43L2.662,47V43.218a.434.434,0,0,0-.428-.434A1.389,1.389,0,0,1,.867,41.4v-9.04a1.386,1.386,0,0,1,1.384-1.384H16.627a1.386,1.386,0,0,1,1.384,1.384v1.673a.434.434,0,0,0,.867,0V32.361a2.254,2.254,0,0,0-2.252-2.252H2.252A2.254,2.254,0,0,0,0,32.361V41.4a2.262,2.262,0,0,0,1.794,2.2v3.837a.7.7,0,0,0,.479.673.726.726,0,0,0,.238.041.7.7,0,0,0,.555-.272l3.254-4.119a.293.293,0,0,1,.189-.109.434.434,0,0,0-.122-.859Z" transform="translate(0 -30.11)" fill="#fff" stroke="#fff" stroke-width="0.5"/>
    </g>
  </g>
</svg>
