<svg id="Users_icon" data-name="Users icon" xmlns="http://www.w3.org/2000/svg" width="18.548" height="21.808" viewBox="0 0 18.548 21.808">
  <path id="Path_4" data-name="Path 4" d="M229.151,356.923l.31.009.292.023.273.05.26.064.237.073.232.092.205.1.191.105.21.128.191.128.164.133.141.128.119.124.1.115.077.1.059.082.041.06.027.041,0,.018h.032l.036.009.046.014.059.014.059.018.073.032.077.041.087.046.087.06.087.073.091.087.091.1.087.115.077.133.082.147.073.165.064.183.059.206.046.234.041.252.023.279,0,.3,0,.325-.023.357-.041.376-.064.417-.068.3-.091.312.073,0,.073,0,.068.014.073.023.059.032.059.05.05.06.046.082.036.1.023.119.014.142,0,.16-.014.179-.032.211-.046.238-.073.257-.1.307-.087.257-.082.22-.087.179-.087.147-.077.115-.082.082-.073.055-.064.032-.073.018-.055.279-.077.284-.1.293-.128.3-.15.293-.178.284-.191.284-.219.266-.237.257-.26.238-.283.22-.3.2-.319.165-.328.137-.346.105-.342.06-.351.023-.351-.023-.342-.06-.342-.1-.337-.142-.324-.169-.3-.192-.273-.22-.26-.238-.237-.261-.219-.261-.191-.289-.173-.284-.15-.3-.128-.293-.1-.289-.082-.293-.05-.279-.068-.018-.073-.032-.073-.055-.077-.082-.077-.115-.087-.147-.087-.179-.087-.22-.091-.252-.091-.3-.068-.266-.055-.234-.023-.211-.023-.183v-.16l.014-.133.027-.119.032-.1.041-.078.055-.069.059-.046.064-.032.068-.027.068-.014h.146l-.1-.3-.068-.307-.059-.334-.041-.339-.014-.334.009-.316.032-.316.068-.312.1-.348.123-.321.15-.307.173-.284L225.4,359l.2-.247.21-.229.246-.247.255-.229.269-.206.278-.192.242-.16.251-.137.264-.128.269-.105.3-.078.31-.069.324-.023.333-.023Z" transform="translate(-220.242 -356.923)" fill="#f5f5f5" fill-rule="evenodd"/>
  <path id="Path_5" data-name="Path 5" d="M226.217,369.038l1.478,4.763.282.9.009-.014.24.761.776-2.259-.189-.279-.157-.26-.129-.246-.106-.217-.074-.208-.055-.189-.032-.17-.014-.151.009-.142.018-.123.042-.118.046-.1.065-.08.069-.08.078-.061.088-.061.088-.052.092-.033.092-.033.088-.028.1-.019.078-.014.078-.009.074,0,.06,0h.217l.06,0,.074,0,.078.009.078.014.1.019.088.028.092.033.092.033.088.052.088.061.079.061.069.08.065.08.046.1.042.118.018.123.009.142-.014.151-.032.17-.055.189-.074.208-.106.217-.129.246-.157.26-.189.279.776,2.259.24-.761.009.014.272-.9,1.478-4.763.014,0,.051.038.069.047.1.066.134.085.157.1.171.1.2.118.217.128.245.132.259.137.277.132.291.137.309.137.323.132.332.128.346.123.356.109.36.1.263.085.235.109.208.128.185.151.162.17.148.18.12.2.106.2.088.213.074.217.06.227.042.217.032.227.028.217.014.213,0,.2v.2l0,.18-.009.17v.019l0,.071-.009.1-.014.137-.014.156-.009.184-.023.189-.018.2-.023.208-.018.2-.018.189-.028.17-.018.151-.014.014-.046.028-.074.038-.1.066-.134.071-.162.09-.185.095-.217.113-.24.109-.268.123-.3.123-.319.128-.351.132-.374.128-.392.132-.425.123-.439.113-.471.118-.494.109-.513.095-.536.09-.563.076-.577.057-.609.047-.619.028-.651,0-.637,0-.628-.028-.6-.047-.577-.061-.563-.076-.536-.085-.513-.1-.494-.1-.471-.118-.439-.113-.425-.132-.392-.123-.374-.128-.351-.132-.319-.128-.3-.123-.268-.123-.24-.118-.217-.1-.185-.095-.162-.09-.134-.071-.1-.066-.074-.038-.046-.028-.014-.014-.018-.151-.028-.17-.018-.189-.018-.2-.023-.208-.018-.2-.023-.189-.009-.184-.014-.156-.014-.137-.009-.1,0-.071v-.019l-.009-.17,0-.18v-.2l0-.2.014-.213.023-.217.032-.227.046-.217.055-.227.074-.217.083-.213.111-.2.125-.2.143-.18.157-.17.189-.151.208-.128.235-.109L222,371l.369-.1.356-.109.342-.123.332-.128.323-.132.3-.137.3-.137.282-.132.254-.137.24-.132.222-.128.2-.118.18-.1.157-.1.125-.085.1-.066.074-.047.046-.038.014,0Z" transform="translate(-220.242 -356.923)" fill="#f5f5f5" fill-rule="evenodd"/>
</svg>
